<?xml version="1.0" encoding="utf-8"?>
<!-- Generator: Adobe Illustrator 26.0.1, SVG Export Plug-In . SVG Version: 6.00 Build 0)  -->
<svg version="1.1" id="Camada_1" xmlns="http://www.w3.org/2000/svg" xmlns:xlink="http://www.w3.org/1999/xlink" x="0px" y="0px"
	 viewBox="0 0 320 320" style="enable-background:new 0 0 320 320;" xml:space="preserve">
<style type="text/css">
	.st0{fill:#00AC47;}
	.st1{fill:#5BB974;}
	.st2{fill:#00832D;}
</style>
<path class="st0" d="M83.3,171.5V76.3H41.7c-12.3,0-22.2,9.9-22.2,22.2v196.9c0,9.9,11.9,14.8,18.9,7.8l45.8-45.7h130.3
	c12.3,0,22.2-9.9,22.2-22.2v-41.6H105.5C93.2,193.7,83.3,183.8,83.3,171.5z"/>
<path class="st1" d="M278.3,13.5H105.5c-12.3,0-22.2,9.9-22.2,22.2v40.7h131.2c12.3,0,22.2,9.9,22.2,22.2v95.2h41.6
	c12.3,0,22.2-9.9,22.2-22.2V35.7C300.5,23.4,290.5,13.5,278.3,13.5z"/>
<path class="st2" d="M214.5,76.3H83.3v95.2c0,12.3,9.9,22.2,22.2,22.2h131.2V98.5C236.7,86.3,226.8,76.3,214.5,76.3z"/>
</svg>
