<svg xmlns="http://www.w3.org/2000/svg" xmlns:xlink="http://www.w3.org/1999/xlink" viewBox="0 0 320 320" style="enable-background:new 0 0 320 320" xml:space="preserve"><symbol id="a" viewBox="-34.4 -40 68.7 80"><path d="M5.2-20.6c7.4 1.9 13.1 7.6 15 15h14.1V-27L5.2-40v19.4zm-25.5 15c1.9-7.4 7.6-13.1 15-15V-40l-29.1 13v21.5h14.1zM-5.2 20c-7.4-1.9-13.1-7.6-15-15h-13.2c3 15.6 13.6 28.7 28.2 35V20zM20.3 5c-1.9 7.4-7.6 13.1-15 15v20c14.6-6.3 25.2-19.4 28.2-35H20.3z" style="fill:#4285f4"/><path d="M-10.5-.3c0-5.8 4.7-10.5 10.5-10.5S10.5-6.1 10.5-.3 5.8 10.2 0 10.2-10.5 5.5-10.5-.3z" style="fill:#669df6"/></symbol><use xlink:href="#a" width="68.7" height="80" x="-34.4" y="-40" transform="translate(160.5 160.5) scale(3.5125)" style="overflow:visible"/></svg>