<?xml version="1.0" encoding="utf-8"?>
<!-- Generator: Adobe Illustrator 26.0.1, SVG Export Plug-In . SVG Version: 6.00 Build 0)  -->
<svg version="1.1" id="Camada_1" xmlns="http://www.w3.org/2000/svg" xmlns:xlink="http://www.w3.org/1999/xlink" x="0px" y="0px"
	 viewBox="0 0 320 320" style="enable-background:new 0 0 320 320;" xml:space="preserve">
<style type="text/css">
	.st0{fill:#2684FC;}
	.st1{fill:#0066DA;}
</style>
<path class="st0" d="M96.6,160l31.7,57.4h-95l-22.7-41.1c-5.5-10-5.2-22.3,0.8-32l25.8-41.6h91L96.6,160z"/>
<path class="st0" d="M191.6,102.6l31.7,57.4l47.5-81.1l-22.5-39.4c-5.6-9.9-16.1-15.9-27.5-15.9h-48.9l-43.5,79.1L191.6,102.6
	L191.6,102.6z"/>
<path class="st1" d="M128.3,102.6l43.5-79.1h-41.1h-29.8c-11.4,0-21.8,6.1-27.5,15.9l-36.1,63.2C37.3,102.6,128.3,102.6,128.3,102.6
	z"/>
<path class="st0" d="M191.6,217.4h-63.3l45.5,78.9h48.8c11.4,0,21.9-6.1,27.5-16l24.6-43.2L223.2,160L191.6,217.4z"/>
<path class="st1" d="M173.8,296.5H95.9c-11.5,0-22.1-6.2-27.7-16.3l-34.9-62.9h95L173.8,296.5z"/>
<path class="st1" d="M223.2,160l47.5-81.1l38.3,65.5c5.7,9.7,5.8,21.7,0.3,31.5l-36.6,65.3L223.2,160z"/>
</svg>
