<svg version="1.1" id="Camada_1" xmlns="http://www.w3.org/2000/svg" x="0" y="0" viewBox="0 0 320 320" style="enable-background:new 0 0 320 320" xml:space="preserve"><style>.st0{fill:#92e2f4}.st2{fill:#fff}</style><path class="st0" d="M280.1 106.4 157 237.5c-.7.7-1.6 1.1-2.6 1.1-.8 0-1.6-.3-2.3-.8l-43.4-36.4-1.1.7-17.6 11-5.8 3.6c19.5 33.3 55.7 55.7 97 55.7 62 0 112.4-50.4 112.4-112.4.1-18.7-4.5-37.2-13.5-53.6zM258.3 78.1c-20.8-19.6-48.3-30.6-77-30.6-41.8 0-78.3 22.9-97.7 56.8l8.8-1.3 165.9-24.9z"/><path d="m308.2 73.1-.1-.1c-.6-1.1-1.8-1.8-3-1.8h-.5L14.4 114.8c-1.4.2-2.5 1.2-2.9 2.5-.4 1.3.1 2.8 1.1 3.7l51 42.8s4.9 56.5 4.9 56.6c0 .9.4 1.8 1.1 2.5.7.6 1.5.9 2.4.9.6 0 1.2-.2 1.7-.5 0 0 9.7-6 33.8-21.1l1.1-.7 43.4 36.4c.6.5 1.4.8 2.3.8 1 0 1.9-.4 2.6-1.1L307.6 77.1c1-1.1 1.2-2.7.6-4zM154 228.2l-59.9-50-18.5 23.2-3.5-39.9c-.1-1.3-.8-2.6-1.8-3.5l-43.5-36.5L291.3 82 154 228.2z" style="fill:#474d57"/><path class="st2" d="M72.5 157.2c1.5-.6 148.9-57 180.1-68.5 1.8-.7 3.7-1.2 5.7-1.8L26.8 121.6 70.3 158l2.2-.8z"/><path d="m291.3 82-32.8 4.9c-2.1.6-4.1 1.2-5.9 1.8C221.4 100.2 70.3 158 70.3 158l.1.1c.2.1.3.3.4.4.2.2.3.4.5.6.1.1.2.3.3.5 0 0 0 .1.1.2 0 .1 0 0 0 0 .1.2.2.5.3.8.1.3.1.5.2.8v.2l3.5 39.9 18.5-23.2s162.9-76.8 170.7-80.8c10.7-5.7 26.3-15.5 26.4-15.5z" style="fill:#2d7ec1"/><path class="st2" d="M291.3 82s-15.7 9.8-26.5 15.4c-7.8 4-170.7 80.8-170.7 80.8l59.9 50L291.3 82z"/></svg>