<svg xmlns="http://www.w3.org/2000/svg" viewBox="0 0 320 320" xmlns:v="https://vecta.io/nano"><style><![CDATA[.I{enable-background:new}]]></style><path d="M40 60h240v200H40z" fill="#0f9d58"/><path d="M213.3 166.7a14.98 14.98 0 1 0 0-30 14.98 14.98 0 0 0-15 15c0 8.2 6.8 15 15 15zm0 10c-16.1 0-33.3 8.5-33.3 19.1v10.9h66.7v-10.9c0-10.6-17.3-19.1-33.4-19.1zm-106.6-10a14.98 14.98 0 1 0 0-30 14.98 14.98 0 0 0-15 15c0 8.2 6.7 15 15 15zm0 10c-16.1 0-33.3 8.5-33.3 19.1v10.9H140v-10.9c0-10.6-17.3-19.1-33.3-19.1z" fill="#57bb8a"/><path d="M160 153.3c11 0 20-8.9 20-20 0-11-9-20-20-20-11.1 0-20 9-20 20 0 11.1 9 20 20 20zm0 13.4c-22.5 0-46.7 11.9-46.7 26.7v13.3h93.3v-13.3c.1-14.8-24.1-26.7-46.6-26.7z" fill="#f7f7f7"/><path d="M186.7 246.7h60V260h-60z" fill="#f1f1f1"/><path d="M286.7 33.3H33.3a19.93 19.93 0 0 0-20 20v213.3a19.93 19.93 0 0 0 20 20h253.3a19.93 19.93 0 0 0 20-20V53.3c.1-11-8.9-20-19.9-20zM280 260H40V60h240v200z" fill="#f4b400"/><path d="M286.7 33.3H33.3a19.93 19.93 0 0 0-20 20V55c0-11 8.9-20 20-20h253.3c11.1 0 20 9 20 20v-1.7c.1-11-8.9-20-19.9-20z" opacity=".2" fill="#fff" class="I"/><path d="M286.7 285H33.3a19.93 19.93 0 0 1-20-20v1.7a19.93 19.93 0 0 0 20 20h253.3a19.93 19.93 0 0 0 20-20V265c.1 11.1-8.9 20-19.9 20z" opacity=".2" fill="#bf360c" class="I"/><linearGradient id="A" gradientUnits="userSpaceOnUse" x1="229.899" y1="260.37" x2="229.899" y2="286.945"><stop offset="0" stop-color="#bf360c" stop-opacity=".2"/><stop offset="1" stop-color="#bf360c" stop-opacity=".02"/></linearGradient><path d="M246.6 260h-60l26.6 26.7h60z" fill="url(#A)"/><path d="M40 58.3h240V60H40z" opacity=".2" fill="#263238" class="I"/><path d="M40 260h240v1.7H40z" opacity=".2" fill="#fff" class="I"/><radialGradient id="B" cx="-415.212" cy="543.483" r="4.61" gradientTransform="matrix(76 0 0 -76 31579.4082 41344)" gradientUnits="userSpaceOnUse"><stop offset="0" stop-color="#fff" stop-opacity=".1"/><stop offset="1" stop-color="#fff" stop-opacity="0"/></radialGradient><path d="M286.7 33.3H33.3c-11 0-20 9-20 20v213.3a19.93 19.93 0 0 0 20 20h253.3a19.93 19.93 0 0 0 20-20V53.3c.1-11-8.9-20-19.9-20z" fill="url(#B)"/></svg>