<svg xmlns="http://www.w3.org/2000/svg" viewBox="0 0 320 320" style="enable-background:new 0 0 320 320" xml:space="preserve"><path d="m181.1 161.4-12-29.2-20.3-25.5-22.5 18.8-10.3 35.9 10.3 30.8 22.5 23.9 20.3-25.6 12-29.1z" style="fill:#1967d2"/><path d="M148.9 106.7 132.6 79c-4.9-8.4-13.9-13.5-23.6-13.5H78.4c-9.5 0-18.4 5-23.5 13.2L14 146.3c-5.6 9.3-5.6 20.9 0 30.2L54.9 244c4.9 8.1 13.8 13.2 23.5 13.2H109c9.7 0 18.7-5.1 23.6-13.5l16.3-27.7-32.9-54.6 32.9-54.7zm-55.5 93.6-23.6-38.9 23.6-38.9 22.6 38.9-22.6 38.9zm213.8-53.6L255.8 57c-4.9-8.5-13.9-13.7-23.8-13.7h-30.1c-9.8 0-18.7 5.1-23.6 13.5l-29.4 50 32.2 54.7 35.4-60.3 34.9 60.3-34.9 60.2-35.5-60.3-32.1 54.6 29.4 48.5c4.9 8.1 13.8 13.2 23.5 13.2h30.5c9.8 0 18.8-5.1 23.7-13.6l51.5-88.1c5-9.1 5-20.2-.3-29.3z" style="fill:#4285f4"/></svg>