<svg xmlns="http://www.w3.org/2000/svg" xmlns:xlink="http://www.w3.org/1999/xlink" viewBox="0 0 320 320" xmlns:v="https://vecta.io/nano"><path d="M176.5 268H19.9c-8.6 0-15.5-7-15.5-15.5V32.7c0-8.6 7-15.5 15.5-15.5h156.6c8.6 0 15.5 7 15.5 15.5v219.7c.1 8.6-6.9 15.6-15.5 15.6z" fill="#609"/><linearGradient id="A" gradientUnits="userSpaceOnUse" x1="217.6" y1="164.75" x2="30" y2="164.75"><stop offset="0" stop-color="#6d2c91"/><stop offset=".467" stop-color="#b03588"/><stop offset=".821" stop-color="#dd3c82"/><stop offset="1" stop-color="#ee3e80"/></linearGradient><path d="M202.1 290.1H45.5c-8.6 0-15.5-7-15.5-15.5V54.9c0-8.6 7-15.5 15.5-15.5h156.6c8.6 0 15.5 7 15.5 15.5v219.7a15.45 15.45 0 0 1-15.5 15.5z" fill="url(#A)"/><g opacity=".3" enable-background="new" fill="#fff"><use xlink:href="#C"/><use xlink:href="#D"/><use xlink:href="#E"/><use xlink:href="#D" y="-138.9"/><use xlink:href="#E" y="-138.9"/><path d="M106.7 162H70.9a3.76 3.76 0 0 1-3.7-3.7v-.3a3.76 3.76 0 0 1 3.7-3.7h35.9c2.1 0 3.9 1.7 3.9 3.9h0c-.1 2.1-1.8 3.8-4 3.8z"/><use xlink:href="#C" y="-69.5"/></g><g fill="#ffb000"><use xlink:href="#F"/><path d="M279.3 312.8l36.2-45.4c2.2-3.1.3-7.3-3.6-7.3H297a4.48 4.48 0 0 1-4.5-4.5v-48.7a4.48 4.48 0 0 0-4.5-4.5h-24.7a4.48 4.48 0 0 0-4.5 4.5v48.7a4.48 4.48 0 0 1-4.5 4.5h-14.9c-3.6 0-5.9 4.2-3.6 7.3l36.5 45.4c1.9 2.2 5.3 2.2 7 0z"/></g><g fill="#fadb4f"><use xlink:href="#F" x="-5.3" y="-2.1"/><path d="M275 310.5l36.2-45.4c2.2-3.1.3-7.3-3.6-7.3h-14.9a4.48 4.48 0 0 1-4.5-4.5v-48.7a4.48 4.48 0 0 0-4.5-4.5H259a4.48 4.48 0 0 0-4.5 4.5v48.7a4.48 4.48 0 0 1-4.5 4.5h-14.9c-3.6 0-5.9 4.2-3.6 7.3l36.5 45.4c1.9 2.2 5.3 2.2 7 0z"/></g><defs ><path id="C" d="M176.8 208.4h-106a3.76 3.76 0 0 1-3.7-3.7v-.3a3.76 3.76 0 0 1 3.7-3.7h106c2.1 0 3.9 1.7 3.9 3.9h0c0 2-1.7 3.8-3.9 3.8z"/><path id="D" d="M176.8 231.5h-106a3.76 3.76 0 0 1-3.7-3.7v-.3a3.76 3.76 0 0 1 3.7-3.7h106c2.1 0 3.9 1.7 3.9 3.9h0c0 2.1-1.7 3.8-3.9 3.8z"/><path id="E" d="M137.9 254.6h-67a3.76 3.76 0 0 1-3.7-3.7v-.3a3.76 3.76 0 0 1 3.7-3.7h67c2.1 0 3.9 1.7 3.9 3.9h0c-.1 2.1-1.8 3.8-3.9 3.8z"/><path id="F" d="M204.9 183.5l-36.2 45.4c-2.2 3.1-.3 7.3 3.6 7.3h14.9a4.48 4.48 0 0 1 4.5 4.5v48.7a4.48 4.48 0 0 0 4.5 4.5h24.7a4.48 4.48 0 0 0 4.5-4.5v-48.7a4.48 4.48 0 0 1 4.5-4.5h14.9c3.6 0 5.9-4.2 3.6-7.3l-36.5-45.4c-2-2.2-5.4-2.2-7 0z"/></defs></svg>