<svg xmlns="http://www.w3.org/2000/svg" viewBox="0 0 320 320" xmlns:v="https://vecta.io/nano"><path d="M275.8 49.2c0 184.5-112.8 238.7-132.7 251.2-1.7 1.1-4 1.1-6.1 0C117 288.2 4.2 233.8 4.2 49.2c0-4 3.4-7.1 7.4-7.4h4c42.7.7 84.7-11.8 120.2-35.9 2.4-1.7 5.8-1.7 8.5 0 35.6 23.7 77.5 36.2 120.2 35.9h4c3.9.3 7.3 3.4 7.3 7.4z" fill="#609"/><path d="M268.7 41.8h-4c-42.7.3-85.1-12.2-120.6-36-1-.6-2.7-1.3-4.1-1.2l.4 296.6c1.4 0 2.4-.6 2.9-.9 20-12.5 132.5-66.6 132.5-251.1 0-4-3.4-7.1-7.1-7.4z" fill="#461e5f"/><linearGradient id="A" gradientUnits="userSpaceOnUse" x1="245.4" y1="153.5" x2="35.1" y2="153.5"><stop offset="0" stop-color="#6d2c91"/><stop offset=".467" stop-color="#b03588"/><stop offset=".821" stop-color="#dd3c82"/><stop offset="1" stop-color="#ee3e80"/></linearGradient><path d="M140.4 267.6C110.2 250 41.8 198.5 35.1 71.5a247.3 247.3 0 0 0 105-32.1c32.1 18.7 68 29.4 105.3 32.1-7.2 127-74.5 178.5-105 196.1z" fill="url(#A)"/><path d="M140.1 39.4l.3 228.2h0c30.5-17.6 97.8-69.2 104.9-196.2-37.2-2.6-73-13.4-105.2-32h0z" opacity=".6" fill="#8533ad" enable-background="new"/><path d="M177.3 126.7h-4.4v-13.3c0-18.4-15-33.4-33.4-33.4s-33.4 15-33.4 33.4v13.3H99c-4.8 0-8.9 4.1-9.2 9.2v59.3c0 5.1 4.1 9.2 9.2 9.2h19 40.2 19c5.1 0 9.2-4.1 9.2-9.2v-59.3c.1-5.1-4-9.2-9.1-9.2zm-59.2 0h-2.4v-13.3c0-12.9 10.9-23.8 23.8-23.8s23.8 10.9 23.8 23.8v13.3h-5-40.2z" fill="#609"/><path d="M172.9 161.3h-9.6v-56.5c0-12.9-10.9-23.8-23.8-23.8s-23.8 10.9-23.8 23.8v56.5h-9.6v-56.5c0-18.4 15-33.4 33.4-33.4s33.4 15 33.4 33.4v56.5z" fill="#ffc74a"/><path d="M118.1 118.1h59.3c5.1 0 9.2 4.1 9.2 9.2v59.3c0 5.1-4.1 9.2-9.2 9.2h-59.3c-5.1 0-9.2-4.1-9.2-9.2v-59.3c0-5.1 4.1-9.2 9.2-9.2z" fill="#ffb000"/><path d="M99 118.1h59.3c5.1 0 9.2 4.1 9.2 9.2v59.3c0 5.1-4.1 9.2-9.2 9.2H99c-5.1 0-9.2-4.1-9.2-9.2v-59.3c.4-5.1 4.5-9.2 9.2-9.2z" fill="#fadb4f"/><linearGradient id="B" gradientUnits="userSpaceOnUse" x1="141.2" y1="156.75" x2="115.651" y2="156.75"><stop offset="0" stop-color="#6d2c91"/><stop offset=".467" stop-color="#b03588"/><stop offset=".821" stop-color="#dd3c82"/><stop offset="1" stop-color="#ee3e80"/></linearGradient><path d="M141.2 146.3c0-7.2-5.8-12.6-12.6-12.6-1.4 0-2.7.4-4.1.7-3.8 1.4-6.8 4.4-8.2 8.2-1.7 5.1 0 10.5 4.4 14 2 1.4 3.1 3.7 2.7 6.1V175c0 2.7 2 4.8 4.8 4.8s4.8-2 4.8-4.8v-12.2c0-2.4 1-4.8 3.1-6.1 3.1-2.5 5.1-6.3 5.1-10.4z" fill="url(#B)"/></svg>