<svg xmlns="http://www.w3.org/2000/svg" viewBox="0 0 320 320" xmlns:v="https://vecta.io/nano"><linearGradient id="A" gradientUnits="userSpaceOnUse" x1="101.814" y1="241.33" x2="101.814" y2="88.015"><stop offset="0" stop-color="#6d2c91"/><stop offset=".467" stop-color="#b03588"/><stop offset=".821" stop-color="#dd3c82"/><stop offset="1" stop-color="#ee3e80"/></linearGradient><path d="M13 88h177.6c3.1 0 5.9 2.7 5.9 5.9v141.6c0 3.1-2.7 5.9-5.9 5.9H13c-3.1 0-5.9-2.7-5.9-5.9V93.8c0-3.1 2.5-5.8 5.9-5.8z" fill="url(#A)"/><linearGradient id="B" gradientUnits="userSpaceOnUse" x1="215.733" y1="164.672" x2="11.827" y2="164.672"><stop offset="0" stop-color="#6d2c91"/><stop offset=".467" stop-color="#b03588"/><stop offset=".821" stop-color="#dd3c82"/><stop offset="1" stop-color="#ee3e80"/></linearGradient><path d="M19.6 240.6c-.7 0-1.2-.6-1.2-1.2V94.6c0-.7.6-1.2 1.2-1.2s1.2.6 1.2 1.2v144.7c0 .7-.5 1.3-1.2 1.3h0zm-6.6 0c-.7 0-1.2-.6-1.2-1.2V94.6c0-.7.6-1.2 1.2-1.2s1.2.6 1.2 1.2v144.7c0 .7-.5 1.3-1.2 1.3h0zM32.3 88h177.6c3.1 0 5.9 2.7 5.9 5.9v141.6c0 3.1-2.7 5.9-5.9 5.9H32.3c-3.1 0-5.9-2.7-5.9-5.9V93.8c0-3.1 2.4-5.8 5.9-5.8h0z" fill="url(#B)"/><path d="M12.5 46.8h176.2c5.4 0 9.7 4.4 9.7 9.7v29.7c0 5.4-4.4 9.7-9.7 9.7H12.5c-5.4 0-9.7-4.4-9.7-9.7V56.6c0-5.4 4.3-9.8 9.7-9.8z" fill="#461e5f"/><path d="M38.3 46.9h176.2c5.4 0 9.7 4.4 9.7 9.7v29.7c0 5.4-4.4 9.7-9.7 9.7H38.3c-5.4 0-9.7-4.4-9.7-9.7V56.7c-.1-5.4 4.3-9.8 9.7-9.8z" fill="#55057f"/><path d="M204.3 109.8h-32.2c-.3-.1-.6-.3-.9-.3s-.6.1-.9.3h-32c-.3-.1-.6-.3-.9-.3s-.6.1-.9.3h-31.8c-.3-.1-.6-.3-.9-.3s-.6.1-.9.3H71c-.3-.1-.6-.3-.9-.3s-.6.1-.9.3h-33a1.79 1.79 0 0 0-1.8 1.8v116.9a1.79 1.79 0 0 0 1.8 1.8h168.1a1.79 1.79 0 0 0 1.8-1.8V111.7c0-1-.9-1.9-1.8-1.9zm-1.9 58.5H173v-25.5h29.5v25.5zm-33.1 0h-30.2v-25.5h30.2v25.5zm-63.8 0v-25.5h30v25.5h-30zm30 3.6V198h-30v-26.1h30zm3.6-32.8v-25.6h30.2v25.6h-30.2 0zm-3.6 0h-30v-25.6h30v25.6h0zm-33.7 0H71.9v-25.6h29.9v25.6zm0 3.6v25.5H71.9v-25.5h29.9zm-33.6 25.6H38v-25.5h30.2c0-.1 0 25.5 0 25.5zM38 171.9h30.2V198H38v-26.1zm33.9 0h29.9V198H71.9v-26.1zm29.9 29.8v25.1H71.9v-25.1h29.9zm3.7 0h30v25.1h-30v-25.1h0zm33.6 0h30.2v25.1h-30.2v-25.1zm0-3.7v-26.1h30.2V198h-30.2zm33.9-26.1h29.5V198H173v-26.1h0zm29.4-32.8H173v-25.6h29.5v25.6zM68.2 113.5v25.6H38v-25.6h30.2zM38 201.7h30.2v25.1H38v-25.1zm135 25.1v-25.1h29.5v25.1H173z" opacity=".2" fill="#fff" enable-background="new"/><path d="M309 318.1H130.6c-5.3 0-9.4-4.1-9.4-9.4v-116c0-5.3 4.1-9.4 9.4-9.4H309c5.3 0 9.4 4.1 9.4 9.4v115.6c.4 5.3-4.1 9.8-9.4 9.8z" fill="#fadb4f"/><g fill="#eb3d7d"><path d="M220.2 263.5c-.8 0-1.5-.4-2.3-.8l-81.3-59.1c-1.5-1.1-1.9-3.4-.8-5.3 1.1-1.5 3.4-1.9 5.3-.8l79.4 57.6 79.4-57.6c1.5-1.1 4.1-.8 5.3.8 1.1 1.5.8 4.1-.8 5.3l-82.1 59.1c-.3.8-1 .8-2.1.8h0z"/><path d="M138.8 301.2c-1.1 0-2.3-.4-3-1.5-1.1-1.5-.8-4.1.8-5.3l65.9-47.8c1.5-1.1 4.1-.8 5.3.8s.8 4.1-.8 5.3l-65.9 47.8c-.8.3-1.5.7-2.3.7h0zm163.1 0c-.8 0-1.5-.4-2.3-.8l-66.3-47.8c-1.5-1.1-1.9-3.4-.8-5.3 1.1-1.5 3.4-1.9 5.3-.8l66.3 47.8c1.5 1.1 1.9 3.4.8 5.3a3.42 3.42 0 0 1-3 1.6zM240.5 161c-.9 0-1.8-.3-2.5-.9-7.4-6.2-11.6-15.3-11.6-24.9 0-15.2 10.5-28.2 24.9-31.7l-.6-.6c-1.5-1.5-1.5-4 0-5.5.7-.7 1.7-1.1 2.7-1.1s2 .4 2.7 1.1l6.1 6.1c1.5 1.5 1.5 4 0 5.5l-6.1 6.1c-.7.7-1.7 1.1-2.7 1.1s-2-.4-2.7-1.1-1.1-1.7-1.1-2.7v-.1c-9.2 3.7-15.4 12.7-15.4 23 0 7.3 3.2 14.2 8.8 19 1.6 1.4 1.8 3.8.5 5.5-.8.7-1.9 1.2-3 1.2h0zm22.9 13.4c-1 0-2-.4-2.7-1.1l-6.1-6.1c-1.5-1.5-1.5-4 0-5.5l6.1-6.1c.7-.7 1.7-1.1 2.7-1.1s2 .4 2.7 1.1 1.1 1.7 1.1 2.7v.1c9.2-3.7 15.4-12.7 15.4-23 0-7.3-3.2-14.2-8.8-19-1.6-1.4-1.8-3.8-.5-5.5.7-.9 1.8-1.4 3-1.4.9 0 1.8.3 2.5.9 7.4 6.2 11.6 15.3 11.6 24.9 0 15.2-10.5 28.2-24.9 31.7l.6.6c.7.7 1.1 1.7 1.1 2.7s-.4 2-1.1 2.7c-.6 1-1.6 1.4-2.7 1.4h0z"/></g></svg>