<svg xmlns="http://www.w3.org/2000/svg" viewBox="0 0 320 320" xmlns:v="https://vecta.io/nano"><g fill="#eb3d7d"><path d="M151.9 170.6L101.5 63.9l6.3-3.8 50.5 106.8-6.4 3.7zm3.6 8.5l-4.4-5.9L282.3 67.7l4.4 5.9-131.2 105.5zM26.7 225.7l-2.1-7.1 125.3-47.2 2.1 7.1-125.3 47.2z"/><path d="M112.1 307.3l-6.9-2.6L148.9 173l6.9 2.6-43.7 131.7z"/><path d="M280.4 265.6l-126.8-85.2 3.7-6.4 126.8 85.2-3.7 6.4z"/></g><g fill="#fadb4f"><circle cx="91.1" cy="35.3" r="33.7"/><circle cx="279.8" cy="261.3" r="30"/><circle cx="280" cy="73.8" r="34.6"/><circle cx="24.8" cy="220.5" r="19.8"/><circle cx="108.4" cy="304.9" r="13.2"/></g><path d="M71.3 131.9l18.1 83.8c1 5.7 6.7 10.6 12.4 10.6H235c5.7 0 9.6-4.7 8.5-10.6l-19.1-83.8c-1-5.7 4.8-10.6-.9-10.6H79.8c-5.6 0-9.5 4.9-8.5 10.6z" fill="#55057f"/><linearGradient id="A" gradientUnits="userSpaceOnUse" x1="248.8" y1="163.5" x2="94.4" y2="163.5"><stop offset="0" stop-color="#6d2c91"/><stop offset=".467" stop-color="#b03588"/><stop offset=".821" stop-color="#dd3c82"/><stop offset="1" stop-color="#ee3e80"/></linearGradient><path d="M138.9 111c0-5.7-4.7-10.6-10.6-10.6H105c-5.7 0-10.6 4.7-10.6 10.6v105c0 5.7 4.7 10.6 10.6 10.6h133.2c5.7 0 10.6-4.7 10.6-10.6v-84c0-5.7-4.7-10.6-10.6-10.6h-88.7c-5.9-.1-10.6-4.7-10.6-10.4z" fill="url(#A)"/></svg>